<svg xmlns="http://www.w3.org/2000/svg" >
<symbol id="logo-mobile" viewBox="0 0  99.236 30.481">
<g  transform="matrix(1.33333 0 0 -1.33333 0 30.48)"><path d="M8.114 10.432c3.734 0 6.182 1.996 6.182 4.958v.065c0 3.22-2.415 4.895-6.054 4.895H2.544v-9.918zM0 21.41C0 22.12.58 22.7 1.256 22.7h7.18c5.087 0 8.436-2.705 8.436-7.148v-.063c0-4.862-4.057-7.373-8.854-7.373H2.544V1.29c0-.708-.58-1.288-1.288-1.288C.58 0 0 .58 0 1.289zM21.729 21.572c0 .708.579 1.288 1.254 1.288.709 0 1.288-.58 1.288-1.288V1.29c0-.708-.579-1.288-1.288-1.288-.676 0-1.255.58-1.255 1.288v20.283zM30.87 21.54c0 .676.58 1.256 1.256 1.256h.354c.58 0 .934-.29 1.288-.74l13.684-17.45v16.998a1.256 1.256 0 001.255 1.256c.676 0 1.223-.58 1.223-1.256V1.256c0-.676-.482-1.191-1.159-1.191h-.129c-.546 0-.933.322-1.319.772L33.35 18.707V1.257c0-.676-.547-1.256-1.255-1.256-.677 0-1.224.58-1.224 1.256zM56.3 21.572c0 .708.579 1.288 1.257 1.288.707 0 1.286-.58 1.286-1.288V9.242L71.69 22.408c.289.258.58.451.998.451.676 0 1.224-.612 1.224-1.256 0-.354-.161-.644-.42-.9l-7.983-7.92L74.073 2.22c.225-.29.354-.546.354-.933C74.427.612 73.847 0 73.14 0c-.484 0-.807.258-1.031.58l-8.403 10.463-4.861-4.862V1.288C58.846.58 58.266 0 57.559 0c-.678 0-1.257.58-1.257 1.288v20.284z"/></g>
</symbol>

<symbol id="logo-table" viewBox="0 0  195.067 53.835">
<g clip-path="url(#a)" transform="matrix(1.33333 0 0 -1.33333 0 53.835)">
<path d="M79.988 10.735c3.734 0 6.182 1.996 6.182 4.96v.061c0 3.221-2.414 4.895-6.053 4.895h-5.7v-9.918h5.57zm-8.114 10.98c0 .708.58 1.288 1.256 1.288h7.18c5.087 0 8.436-2.705 8.436-7.147v-.063c0-4.86-4.057-7.373-8.854-7.373h-5.474V1.594c0-.708-.58-1.287-1.29-1.287-.675 0-1.255.58-1.255 1.287v20.12zM93.603 21.876c0 .708.579 1.288 1.255 1.288.709 0 1.288-.58 1.288-1.288V1.593A1.29 1.29 0 0094.858.306c-.676 0-1.255.579-1.255 1.287zM102.744 21.844c0 .676.58 1.256 1.256 1.256h.354c.58 0 .935-.29 1.288-.74l13.684-17.45v16.998c0 .676.547 1.256 1.256 1.256.676 0 1.225-.58 1.225-1.256V1.56c0-.677-.481-1.191-1.16-1.191h-.128c-.547 0-.935.322-1.318.773l-13.976 17.867V1.559c0-.676-.546-1.256-1.256-1.256-.676 0-1.223.58-1.223 1.257v20.284zM128.173 21.876c0 .708.58 1.288 1.257 1.288a1.29 1.29 0 001.286-1.288V9.545l12.848 13.168c.29.257.58.451.998.451.675 0 1.224-.612 1.224-1.256 0-.354-.162-.644-.42-.901l-7.984-7.92 8.564-10.561c.225-.291.354-.546.354-.935 0-.676-.577-1.288-1.285-1.288-.483 0-.807.259-1.03.58l-8.402 10.464-4.863-4.862V1.591a1.29 1.29 0 00-1.286-1.288c-.677 0-1.257.58-1.257 1.288v20.285zM51.99 10.532c-.716-4.272-4.42-7.53-8.896-7.53-4.475 0-8.18 3.258-8.896 7.53a9.035 9.035 0 00-.135 1.5c0 .512.053 1.011.135 1.5.716 4.271 4.421 7.531 8.896 7.531 4.475 0 8.181-3.26 8.896-7.53.082-.49.135-.989.135-1.5 0-.513-.053-1.013-.135-1.5m-25.675 0C25.6 6.26 21.895 3 17.42 3c-4.475 0-8.18 3.26-8.896 7.531a9.035 9.035 0 00-.135 1.5c0 .512.053 1.011.135 1.5.715 4.271 4.421 7.531 8.896 7.531 4.475 0 8.18-3.26 8.896-7.53.082-.49.135-.989.135-1.5 0-.513-.053-1.013-.135-1.5m34.147 1.827l-5.175 21.365c-.36 2.348-2.593 6.651-8.599 6.651a1.5 1.5 0 110-3c4.856 0 5.575-3.729 5.64-4.143l4.766-19.7h-2.073c-.742 5.926-5.802 10.53-11.927 10.53s-11.186-4.604-11.927-10.53h-1.82c-.74 5.926-5.802 10.53-11.927 10.53S6.235 19.46 5.493 13.533H3.42l4.767 19.7c.063.414.783 4.143 5.64 4.143a1.5 1.5 0 110 3c-6.007 0-8.239-4.303-8.6-6.65L.052 12.36c-.266-1.109.531-1.826 1.426-1.826.012 0 .023-.004.036-.004h3.982C6.237 4.604 11.298 0 17.423 0S28.608 4.604 29.35 10.53h1.814C31.906 4.604 36.966 0 43.091 0s11.186 4.604 11.927 10.53H59c.012 0 .023.004.036.004.895 0 1.692.717 1.426 1.826"/></g>
</symbol>

<symbol id="logo-desktop" viewBox="0 0  195.067 53.835">
<g clip-path="url(#a)" transform="matrix(1.33333 0 0 -1.33333 0 53.833)">
  <path d="M79.988 10.734c3.734 0 6.182 1.996 6.182 4.96v.061c0 3.221-2.414 4.895-6.053 4.895h-5.7v-9.918h5.57zm-8.114 10.98c0 .708.58 1.288 1.256 1.288h7.18c5.087 0 8.436-2.705 8.436-7.147v-.063c0-4.86-4.057-7.373-8.854-7.373h-5.474V1.593c0-.708-.58-1.287-1.29-1.287-.675 0-1.255.58-1.255 1.287v20.12zM93.603 21.875c0 .708.579 1.288 1.255 1.288.709 0 1.288-.58 1.288-1.288V1.592A1.29 1.29 0 0094.858.305c-.676 0-1.255.579-1.255 1.287zM102.744 21.843c0 .676.58 1.256 1.256 1.256h.354c.58 0 .935-.29 1.288-.74l13.684-17.45v16.998c0 .676.547 1.256 1.256 1.256.676 0 1.225-.58 1.225-1.256V1.559c0-.677-.481-1.191-1.16-1.191h-.128c-.547 0-.935.322-1.318.773l-13.976 17.867V1.558c0-.676-.546-1.256-1.256-1.256-.676 0-1.223.58-1.223 1.257v20.284zM128.173 21.875c0 .708.58 1.288 1.257 1.288a1.29 1.29 0 001.286-1.288V9.544l12.848 13.168c.29.257.58.451.998.451.675 0 1.224-.612 1.224-1.256 0-.354-.162-.644-.42-.901l-7.984-7.92 8.564-10.561c.225-.291.354-.546.354-.935 0-.676-.577-1.288-1.285-1.288-.483 0-.807.259-1.03.58l-8.402 10.464-4.863-4.862V1.59a1.29 1.29 0 00-1.286-1.288c-.677 0-1.257.58-1.257 1.288v20.285z"/>
  <path d="M98.498 30.5a3.623 3.623 0 00-3.623 3.624A3.625 3.625 0 0091.25 30.5a3.625 3.625 0 003.625-3.624 3.623 3.623 0 003.623 3.624" fill="currentcolor"/>
  <path d="M43.094 21.062c.246 0 .489-.014.73-.033a2.491 2.491 0 01-2.136 1.221c-.877 0-1.614.568-1.884 1.354a11.977 11.977 0 01-2.09-.816c.063-.017.123-.038.189-.038a2 2 0 002-2c0-.096-.015-.188-.028-.281 1 .382 2.084.593 3.219.593"/>
  <path d="M60.462 12.36l-5.175 21.364c-.361 2.347-2.593 6.651-8.6 6.651a1.5 1.5 0 110-3c4.857 0 5.576-3.729 5.64-4.143l4.767-19.7H55.02c-.445 3.556-2.453 6.627-5.305 8.521a2.504 2.504 0 01-1.53-2.303c0-.088-.014-.17-.025-.256a9.036 9.036 0 003.829-5.965c.082-.488.135-.987.135-1.5 0-.512-.053-1.012-.135-1.5C51.274 6.257 47.569 3 43.094 3c-4.475 0-8.181 3.258-8.896 7.53a9.035 9.035 0 00-.135 1.5c0 .513.053 1.012.135 1.5.147.88.427 1.712.808 2.484a1.994 1.994 0 00-1.852 1.985.739.739 0 01-.192.488 11.95 11.95 0 01-1.795-4.957h-1.82c-.741 5.927-5.802 10.531-11.927 10.531S6.235 19.458 5.493 13.531H3.42l4.767 19.701c.063.414.783 4.143 5.639 4.143a1.5 1.5 0 110 3c-6.006 0-8.238-4.304-8.6-6.65L.053 12.358c-.266-1.109.53-1.826 1.426-1.826.012 0 .023-.004.036-.004h3.982c.079-.629.215-1.237.387-1.83a.722.722 0 01.102.352 2 2 0 002 2c.166 0 .324-.024.478-.062a8.324 8.324 0 00-.074 1.042c0 .512.053 1.011.135 1.5.715 4.27 4.42 7.531 8.896 7.531 4.475 0 8.18-3.26 8.896-7.53.082-.49.135-.989.135-1.5 0-.513-.053-1.013-.135-1.5C25.6 6.257 21.895 3 17.42 3c-2.022 0-3.883.67-5.386 1.794-.35-.302-.8-.492-1.3-.492a.75.75 0 01-.748-.748 1.98 1.98 0 00-.176-.81A11.94 11.94 0 0117.424 0c6.125 0 11.185 4.603 11.927 10.53h1.814C31.907 4.602 36.967 0 43.092 0s11.186 4.603 11.927 10.53h3.98c.013 0 .024.004.037.004.895 0 1.692.716 1.426 1.825"/>
  <path d="M50.686 24.25a4.499 4.499 0 00-4.499 4.499 4.499 4.499 0 00-4.499-4.499 4.499 4.499 0 004.499-4.499 4.498 4.498 0 004.499 4.499M37.904 20.749a2.748 2.748 0 00-2.75 2.749 2.748 2.748 0 00-2.748-2.749A2.747 2.747 0 0035.155 18a2.748 2.748 0 002.749 2.749M10.734 6.303a2.748 2.748 0 00-2.75 2.75c0-1.52-1.23-2.75-2.748-2.75a2.747 2.747 0 002.749-2.748 2.748 2.748 0 002.749 2.748" fill="currentcolor"/>
</g>
</symbol>

</svg>